<?xml version="1.0" standalone="no"?>
<!DOCTYPE svg PUBLIC "-//W3C//DTD SVG 20010904//EN"
 "http://www.w3.org/TR/2001/REC-SVG-20010904/DTD/svg10.dtd">
<svg version="1.0" xmlns="http://www.w3.org/2000/svg"
 width="500.000000pt" height="500.000000pt" viewBox="0 0 500.000000 500.000000"
 preserveAspectRatio="xMidYMid meet">

<g transform="translate(0.000000,500.000000) scale(0.100000,-0.100000)"
fill="#000000" stroke="none">
<path d="M2865 3501 c-15 -6 -11 -9 22 -13 65 -9 159 -57 201 -102 56 -61 76
-119 70 -209 -10 -152 -124 -321 -332 -495 -204 -170 -408 -268 -601 -291
-223 -26 -353 65 -356 250 l-1 54 -10 -40 c-15 -64 -5 -193 20 -241 29 -57 89
-108 158 -134 83 -31 258 -25 389 14 194 58 384 176 551 341 327 323 401 685
169 820 -70 42 -226 67 -280 46z"/>
<path d="M2565 3357 c-115 -51 -257 -113 -313 -137 l-104 -45 7 -65 c16 -153
65 -331 128 -455 38 -76 106 -175 121 -175 38 0 291 149 373 219 22 19 22 19
6 92 -22 97 -21 370 1 529 19 138 19 130 4 130 -7 0 -107 -42 -223 -93z m-318
-191 c-30 -27 -37 -41 -38 -72 0 -22 -4 -48 -9 -59 -8 -18 -9 -17 -9 6 -1 14
-4 46 -7 70 -6 44 -6 44 37 66 62 31 68 28 26 -11z m219 -21 c5 -20 13 -25 36
-25 37 0 82 -23 102 -52 22 -31 21 -35 -20 -48 -30 -10 -38 -9 -55 6 -26 23
-31 15 -17 -29 11 -36 13 -37 60 -37 41 0 54 -5 78 -28 55 -55 45 -153 -19
-190 -22 -12 -29 -22 -25 -38 4 -16 -1 -22 -30 -31 -31 -10 -36 -9 -41 8 -5
14 -16 19 -43 19 -42 0 -95 29 -112 60 -14 27 -8 36 31 44 25 5 37 2 51 -14
38 -41 46 -19 18 55 -8 21 -16 25 -51 25 -34 0 -47 6 -76 35 -33 33 -35 38
-31 87 5 44 11 57 40 83 29 24 34 34 27 52 -6 18 -3 23 19 32 42 15 51 13 58
-14z"/>
<path d="M2404 3006 c-10 -26 1 -51 23 -54 20 -3 21 -1 11 32 -12 38 -25 46
-34 22z"/>
<path d="M2562 2849 c15 -47 24 -54 37 -31 11 21 6 52 -9 52 -5 0 -15 3 -24 6
-14 5 -14 2 -4 -27z"/>
<path d="M1663 1960 c-15 -6 -20 -15 -16 -29 6 -22 -42 -194 -63 -228 -8 -12
-14 -25 -14 -28 0 -3 28 -5 63 -3 55 3 62 5 59 23 -1 11 13 70 32 130 37 121
35 145 -12 144 -15 0 -37 -4 -49 -9z"/>
<path d="M1941 1936 c-7 -8 -9 -25 -6 -38 6 -23 5 -23 -58 -20 -57 3 -67 1
-95 -23 -24 -20 -32 -35 -32 -59 0 -18 5 -37 10 -42 8 -8 6 -15 -5 -24 -8 -7
-15 -20 -15 -30 0 -9 -11 -22 -25 -28 -38 -18 -33 -50 12 -69 72 -29 202 -4
220 44 12 31 -12 48 -76 53 -74 6 -80 23 -11 31 86 11 131 58 110 115 -15 38
-13 44 15 44 33 0 45 28 20 46 -24 18 -49 18 -64 0z m-56 -124 c-7 -35 -29
-57 -45 -47 -12 8 -5 39 17 74 19 30 37 14 28 -27z m-32 -149 c13 -12 -15 -33
-44 -33 -29 0 -44 13 -34 30 7 11 68 14 78 3z"/>
<path d="M1452 1924 c-12 -8 -42 -57 -66 -109 -27 -58 -54 -100 -70 -110 -35
-23 -24 -35 30 -35 40 0 45 2 39 19 -3 10 -1 30 4 45 8 20 17 26 41 26 25 0
30 -4 30 -24 0 -13 -7 -29 -15 -36 -28 -23 -15 -30 51 -30 62 0 66 1 61 21 -3
11 5 57 19 102 29 100 29 102 4 127 -25 25 -95 27 -128 4z m48 -46 c0 -7 -5
-30 -11 -50 -9 -33 -14 -38 -39 -38 -17 0 -30 2 -30 5 0 2 10 25 22 50 14 29
29 45 40 45 10 0 18 -6 18 -12z"/>
<path d="M2294 1924 c8 -21 -41 -203 -60 -225 -21 -23 -8 -29 63 -29 63 0 70
3 54 29 -5 8 -5 26 1 42 9 25 15 29 49 29 51 0 104 22 119 50 6 11 10 37 8 58
-4 50 -31 62 -147 62 -82 0 -92 -2 -87 -16z m144 -47 c4 -35 -22 -77 -48 -77
-24 0 -23 -5 -4 59 11 39 19 51 32 49 10 -2 18 -15 20 -31z"/>
<path d="M2865 1921 c-12 -5 -27 -16 -34 -25 -7 -9 -21 -16 -31 -16 -25 0 -31
-11 -16 -32 12 -16 11 -28 -4 -76 -15 -47 -16 -60 -6 -77 16 -24 71 -31 105
-13 32 17 39 38 12 38 -25 0 -26 10 -6 77 12 40 20 52 40 55 13 3 28 1 33 -4
10 -10 -22 -135 -39 -153 -19 -19 -7 -25 56 -25 64 0 65 1 59 24 -5 23 22 136
34 136 3 0 16 -10 29 -22 32 -30 58 -15 58 33 0 30 -3 34 -28 37 -16 2 -35 -2
-43 -9 -11 -9 -17 -9 -29 1 -10 8 -32 11 -61 7 -62 -7 -84 0 -81 26 2 24 -17
31 -48 18z"/>
<path d="M2053 1865 c-65 -28 -96 -131 -53 -170 29 -26 109 -31 155 -9 73 35
101 132 49 173 -32 25 -102 28 -151 6z m82 -52 c-13 -74 -65 -148 -65 -94 0
37 41 131 57 131 12 0 14 -7 8 -37z"/>
<path d="M2566 1864 c-22 -21 -20 -41 4 -49 30 -9 60 4 60 26 0 10 5 19 10 19
16 0 24 -29 13 -52 -8 -19 -17 -21 -64 -19 -44 2 -58 -2 -73 -17 -25 -29 -18
-73 16 -91 24 -14 30 -14 60 1 29 13 37 14 53 2 26 -19 49 -17 76 6 19 15 21
21 11 28 -11 8 -11 17 -2 50 16 52 6 90 -26 102 -40 16 -120 12 -138 -6z m64
-119 c0 -16 -27 -32 -37 -22 -3 4 -3 13 0 22 8 20 37 20 37 0z"/>
<path d="M3223 1864 c-64 -32 -93 -117 -55 -164 22 -27 94 -37 146 -20 87 28
121 156 50 188 -35 17 -103 14 -141 -4z m87 -34 c0 -24 -29 -112 -41 -124 -6
-6 -13 -6 -20 1 -18 18 27 143 52 143 5 0 9 -9 9 -20z"/>
<path d="M3451 1871 c-7 -5 -11 -14 -7 -20 8 -12 -31 -148 -45 -157 -26 -15
-3 -25 54 -22 47 2 61 6 59 17 -6 26 19 109 38 126 27 24 31 5 13 -54 -13 -38
-14 -57 -7 -69 22 -34 114 -22 114 14 0 8 -4 12 -10 9 -14 -8 -13 2 6 65 21
70 9 100 -39 100 -18 0 -42 -7 -54 -15 -18 -13 -22 -13 -33 0 -14 16 -67 20
-89 6z"/>
</g>
</svg>
